<?xml version="1.0" encoding="UTF-8"?>
<svg xmlns="http://www.w3.org/2000/svg" xmlns:xlink="http://www.w3.org/1999/xlink" width="94px" height="26px" viewBox="0 0 78 26" version="1.1">
<g id="surface1">
<path style=" stroke:none;fill-rule:nonzero;fill:rgb(65.098041%,65.098041%,65.098041%);fill-opacity:1;" d="M 71.585938 0 L 6.199219 0 C 5.960938 0 5.722656 0 5.484375 0 C 5.285156 0.00390625 5.089844 0.0078125 4.886719 0.0078125 C 4.453125 0.015625 4.015625 0.0546875 3.585938 0.125 C 3.15625 0.199219 2.738281 0.335938 2.351562 0.53125 C 1.960938 0.730469 1.605469 0.988281 1.296875 1.296875 C 0.988281 1.605469 0.730469 1.960938 0.53125 2.351562 C 0.335938 2.742188 0.199219 3.160156 0.125 3.589844 C 0.0546875 4.019531 0.015625 4.453125 0.0117188 4.890625 C 0.00390625 5.089844 0.00390625 5.289062 0 5.488281 L 0 20.511719 C 0.00390625 20.714844 0.00390625 20.910156 0.0117188 21.113281 C 0.015625 21.546875 0.0546875 21.984375 0.125 22.414062 C 0.199219 22.84375 0.335938 23.261719 0.53125 23.652344 C 0.730469 24.039062 0.988281 24.394531 1.296875 24.699219 C 1.605469 25.011719 1.960938 25.269531 2.351562 25.46875 C 2.738281 25.664062 3.15625 25.804688 3.585938 25.875 C 4.015625 25.949219 4.453125 25.984375 4.886719 25.992188 C 5.089844 25.996094 5.285156 26 5.484375 26 C 5.722656 26 5.960938 26 6.199219 26 L 71.585938 26 C 71.820312 26 72.058594 26 72.292969 26 C 72.492188 26 72.695312 25.996094 72.890625 25.992188 C 73.328125 25.984375 73.761719 25.949219 74.191406 25.875 C 74.621094 25.800781 75.039062 25.664062 75.433594 25.46875 C 75.820312 25.269531 76.175781 25.011719 76.484375 24.699219 C 76.792969 24.394531 77.050781 24.039062 77.25 23.652344 C 77.445312 23.261719 77.582031 22.84375 77.652344 22.414062 C 77.726562 21.984375 77.765625 21.546875 77.773438 21.113281 C 77.777344 20.910156 77.777344 20.714844 77.777344 20.511719 C 77.78125 20.277344 77.78125 20.042969 77.78125 19.800781 L 77.78125 6.199219 C 77.78125 5.960938 77.78125 5.722656 77.777344 5.488281 C 77.777344 5.289062 77.777344 5.089844 77.773438 4.890625 C 77.765625 4.453125 77.726562 4.019531 77.652344 3.589844 C 77.582031 3.160156 77.445312 2.742188 77.25 2.351562 C 76.851562 1.570312 76.214844 0.933594 75.433594 0.53125 C 75.039062 0.335938 74.621094 0.199219 74.191406 0.125 C 73.761719 0.0507812 73.328125 0.015625 72.890625 0.0078125 C 72.695312 0.0078125 72.492188 0.00390625 72.292969 0 C 72.058594 0 71.820312 0 71.585938 0 Z M 71.585938 0 "/>
<path style=" stroke:none;fill-rule:nonzero;fill:rgb(0%,0%,0%);fill-opacity:1;" d="M 5.488281 25.429688 C 5.292969 25.429688 5.097656 25.429688 4.902344 25.425781 C 4.496094 25.417969 4.089844 25.382812 3.6875 25.316406 C 3.3125 25.253906 2.949219 25.132812 2.609375 24.960938 C 2.273438 24.792969 1.964844 24.570312 1.703125 24.300781 C 1.433594 24.035156 1.207031 23.730469 1.039062 23.394531 C 0.867188 23.054688 0.746094 22.691406 0.683594 22.316406 C 0.617188 21.914062 0.582031 21.507812 0.578125 21.097656 C 0.574219 20.960938 0.566406 20.503906 0.566406 20.503906 L 0.566406 5.488281 C 0.566406 5.488281 0.574219 5.039062 0.578125 4.90625 C 0.582031 4.5 0.617188 4.09375 0.683594 3.691406 C 0.746094 3.316406 0.867188 2.949219 1.039062 2.609375 C 1.207031 2.273438 1.429688 1.96875 1.699219 1.703125 C 1.964844 1.433594 2.273438 1.210938 2.609375 1.035156 C 2.949219 0.867188 3.308594 0.746094 3.683594 0.683594 C 4.085938 0.617188 4.496094 0.582031 4.902344 0.578125 L 5.488281 0.570312 L 72.289062 0.570312 L 72.882812 0.578125 C 73.289062 0.582031 73.691406 0.617188 74.089844 0.683594 C 74.46875 0.746094 74.835938 0.867188 75.175781 1.039062 C 75.851562 1.386719 76.398438 1.9375 76.746094 2.613281 C 76.914062 2.949219 77.03125 3.3125 77.09375 3.683594 C 77.160156 4.089844 77.199219 4.5 77.207031 4.910156 C 77.210938 5.09375 77.210938 5.292969 77.210938 5.488281 C 77.214844 5.734375 77.214844 5.964844 77.214844 6.199219 L 77.214844 19.800781 C 77.214844 20.039062 77.214844 20.269531 77.210938 20.5 C 77.210938 20.710938 77.210938 20.90625 77.207031 21.105469 C 77.199219 21.507812 77.160156 21.910156 77.09375 22.308594 C 77.035156 22.6875 76.917969 23.054688 76.746094 23.394531 C 76.574219 23.730469 76.351562 24.03125 76.085938 24.296875 C 75.820312 24.566406 75.511719 24.789062 75.175781 24.960938 C 74.832031 25.132812 74.46875 25.253906 74.089844 25.316406 C 73.6875 25.382812 73.28125 25.417969 72.875 25.425781 C 72.683594 25.429688 72.484375 25.429688 72.292969 25.429688 L 71.585938 25.433594 Z M 5.488281 25.429688 "/>
<path style=" stroke:none;fill-rule:nonzero;fill:rgb(100%,100%,100%);fill-opacity:1;" d="M 16.101562 13.195312 C 16.113281 12.09375 16.691406 11.074219 17.632812 10.496094 C 17.035156 9.644531 16.074219 9.125 15.039062 9.09375 C 13.945312 8.980469 12.886719 9.746094 12.332031 9.746094 C 11.765625 9.746094 10.90625 9.105469 9.984375 9.125 C 8.773438 9.164062 7.667969 9.835938 7.078125 10.898438 C 5.820312 13.074219 6.757812 16.273438 7.964844 18.03125 C 8.566406 18.894531 9.269531 19.855469 10.191406 19.820312 C 11.09375 19.785156 11.429688 19.246094 12.519531 19.246094 C 13.597656 19.246094 13.910156 19.820312 14.851562 19.800781 C 15.820312 19.785156 16.429688 18.933594 17.011719 18.066406 C 17.441406 17.453125 17.777344 16.773438 17.996094 16.054688 C 16.847656 15.570312 16.101562 14.441406 16.101562 13.195312 Z M 16.101562 13.195312 "/>
<path style=" stroke:none;fill-rule:nonzero;fill:rgb(100%,100%,100%);fill-opacity:1;" d="M 14.324219 7.9375 C 14.851562 7.304688 15.113281 6.488281 15.046875 5.667969 C 14.242188 5.753906 13.5 6.136719 12.964844 6.746094 C 12.4375 7.347656 12.167969 8.132812 12.21875 8.933594 C 13.035156 8.941406 13.8125 8.574219 14.324219 7.9375 Z M 14.324219 7.9375 "/>
<path style=" stroke:none;fill-rule:nonzero;fill:rgb(100%,100%,100%);fill-opacity:1;" d="M 27.496094 17.640625 L 24.417969 17.640625 L 23.679688 19.824219 L 22.378906 19.824219 L 25.292969 11.75 L 26.644531 11.75 L 29.558594 19.824219 L 28.234375 19.824219 Z M 24.738281 16.632812 L 27.175781 16.632812 L 25.976562 13.09375 L 25.941406 13.09375 Z M 24.738281 16.632812 "/>
<path style=" stroke:none;fill-rule:nonzero;fill:rgb(100%,100%,100%);fill-opacity:1;" d="M 35.855469 16.878906 C 35.855469 18.710938 34.875 19.882812 33.398438 19.882812 C 32.632812 19.925781 31.914062 19.523438 31.546875 18.855469 L 31.519531 18.855469 L 31.519531 21.769531 L 30.308594 21.769531 L 30.308594 13.9375 L 31.480469 13.9375 L 31.480469 14.917969 L 31.5 14.917969 C 31.886719 14.25 32.605469 13.851562 33.375 13.875 C 34.871094 13.875 35.855469 15.054688 35.855469 16.878906 Z M 34.613281 16.878906 C 34.613281 15.6875 33.996094 14.90625 33.058594 14.90625 C 32.132812 14.90625 31.511719 15.707031 31.511719 16.878906 C 31.511719 18.066406 32.132812 18.859375 33.058594 18.859375 C 33.996094 18.859375 34.613281 18.082031 34.613281 16.878906 Z M 34.613281 16.878906 "/>
<path style=" stroke:none;fill-rule:nonzero;fill:rgb(100%,100%,100%);fill-opacity:1;" d="M 42.332031 16.878906 C 42.332031 18.710938 41.351562 19.882812 39.875 19.882812 C 39.113281 19.925781 38.390625 19.523438 38.023438 18.855469 L 37.996094 18.855469 L 37.996094 21.769531 L 36.789062 21.769531 L 36.789062 13.9375 L 37.957031 13.9375 L 37.957031 14.917969 L 37.980469 14.917969 C 38.363281 14.25 39.085938 13.851562 39.851562 13.875 C 41.347656 13.875 42.332031 15.054688 42.332031 16.878906 Z M 41.089844 16.878906 C 41.089844 15.6875 40.472656 14.90625 39.535156 14.90625 C 38.609375 14.90625 37.992188 15.707031 37.992188 16.878906 C 37.992188 18.066406 38.609375 18.859375 39.535156 18.859375 C 40.472656 18.859375 41.089844 18.082031 41.089844 16.878906 Z M 41.089844 16.878906 "/>
<path style=" stroke:none;fill-rule:nonzero;fill:rgb(100%,100%,100%);fill-opacity:1;" d="M 46.613281 17.574219 C 46.703125 18.375 47.480469 18.898438 48.542969 18.898438 C 49.558594 18.898438 50.292969 18.375 50.292969 17.652344 C 50.292969 17.027344 49.851562 16.652344 48.804688 16.394531 L 47.757812 16.140625 C 46.277344 15.785156 45.589844 15.089844 45.589844 13.964844 C 45.589844 12.574219 46.800781 11.617188 48.523438 11.617188 C 50.230469 11.617188 51.398438 12.574219 51.4375 13.964844 L 50.21875 13.964844 C 50.148438 13.160156 49.480469 12.671875 48.507812 12.671875 C 47.535156 12.671875 46.867188 13.164062 46.867188 13.882812 C 46.867188 14.453125 47.292969 14.789062 48.335938 15.046875 L 49.222656 15.261719 C 50.878906 15.65625 51.566406 16.320312 51.566406 17.5 C 51.566406 19.011719 50.363281 19.957031 48.453125 19.957031 C 46.660156 19.957031 45.453125 19.035156 45.375 17.574219 Z M 46.613281 17.574219 "/>
<path style=" stroke:none;fill-rule:nonzero;fill:rgb(100%,100%,100%);fill-opacity:1;" d="M 54.175781 12.542969 L 54.175781 13.9375 L 55.292969 13.9375 L 55.292969 14.894531 L 54.175781 14.894531 L 54.175781 18.136719 C 54.175781 18.640625 54.398438 18.878906 54.890625 18.878906 C 55.023438 18.875 55.15625 18.867188 55.289062 18.847656 L 55.289062 19.800781 C 55.066406 19.839844 54.84375 19.859375 54.617188 19.855469 C 53.425781 19.855469 52.960938 19.410156 52.960938 18.265625 L 52.960938 14.894531 L 52.105469 14.894531 L 52.105469 13.9375 L 52.960938 13.9375 L 52.960938 12.542969 Z M 54.175781 12.542969 "/>
<path style=" stroke:none;fill-rule:nonzero;fill:rgb(100%,100%,100%);fill-opacity:1;" d="M 55.941406 16.878906 C 55.941406 15.027344 57.03125 13.863281 58.734375 13.863281 C 60.441406 13.863281 61.523438 15.027344 61.523438 16.878906 C 61.523438 18.738281 60.445312 19.894531 58.734375 19.894531 C 57.023438 19.894531 55.941406 18.738281 55.941406 16.878906 Z M 60.292969 16.878906 C 60.292969 15.609375 59.710938 14.859375 58.734375 14.859375 C 57.753906 14.859375 57.171875 15.617188 57.171875 16.878906 C 57.171875 18.15625 57.753906 18.898438 58.734375 18.898438 C 59.710938 18.898438 60.292969 18.15625 60.292969 16.878906 Z M 60.292969 16.878906 "/>
<path style=" stroke:none;fill-rule:nonzero;fill:rgb(100%,100%,100%);fill-opacity:1;" d="M 62.519531 13.9375 L 63.671875 13.9375 L 63.671875 14.9375 L 63.699219 14.9375 C 63.863281 14.292969 64.453125 13.851562 65.117188 13.875 C 65.253906 13.875 65.394531 13.890625 65.53125 13.921875 L 65.53125 15.050781 C 65.355469 14.996094 65.171875 14.972656 64.988281 14.976562 C 64.632812 14.964844 64.289062 15.105469 64.046875 15.367188 C 63.804688 15.625 63.6875 15.980469 63.730469 16.332031 L 63.730469 19.824219 L 62.519531 19.824219 Z M 62.519531 13.9375 "/>
<path style=" stroke:none;fill-rule:nonzero;fill:rgb(100%,100%,100%);fill-opacity:1;" d="M 71.101562 18.09375 C 70.9375 19.164062 69.898438 19.894531 68.566406 19.894531 C 66.855469 19.894531 65.792969 18.75 65.792969 16.910156 C 65.792969 15.0625 66.859375 13.863281 68.515625 13.863281 C 70.144531 13.863281 71.167969 14.984375 71.167969 16.769531 L 71.167969 17.183594 L 67.011719 17.183594 L 67.011719 17.253906 C 66.972656 17.691406 67.125 18.125 67.425781 18.445312 C 67.730469 18.765625 68.152344 18.9375 68.59375 18.921875 C 69.179688 18.976562 69.734375 18.640625 69.953125 18.09375 Z M 67.015625 16.335938 L 69.957031 16.335938 C 69.980469 15.945312 69.835938 15.558594 69.5625 15.277344 C 69.289062 14.992188 68.910156 14.835938 68.515625 14.84375 C 68.117188 14.839844 67.734375 15 67.453125 15.277344 C 67.171875 15.558594 67.015625 15.941406 67.015625 16.335938 Z M 67.015625 16.335938 "/>
<path style=" stroke:none;fill-rule:nonzero;fill:rgb(100%,100%,100%);fill-opacity:1;" d="M 24.585938 5.675781 C 25.101562 5.636719 25.601562 5.832031 25.957031 6.207031 C 26.308594 6.578125 26.476562 7.09375 26.410156 7.601562 C 26.410156 8.839844 25.742188 9.554688 24.585938 9.554688 L 23.1875 9.554688 L 23.1875 5.675781 Z M 23.789062 9.003906 L 24.519531 9.003906 C 24.886719 9.027344 25.242188 8.882812 25.492188 8.613281 C 25.738281 8.339844 25.851562 7.972656 25.796875 7.609375 C 25.847656 7.25 25.734375 6.882812 25.484375 6.613281 C 25.238281 6.347656 24.882812 6.203125 24.519531 6.222656 L 23.789062 6.222656 Z M 23.789062 9.003906 "/>
<path style=" stroke:none;fill-rule:nonzero;fill:rgb(100%,100%,100%);fill-opacity:1;" d="M 27.09375 8.089844 C 27.042969 7.5625 27.292969 7.054688 27.742188 6.777344 C 28.1875 6.5 28.757812 6.5 29.203125 6.777344 C 29.652344 7.054688 29.902344 7.5625 29.851562 8.089844 C 29.902344 8.613281 29.652344 9.121094 29.203125 9.402344 C 28.757812 9.679688 28.1875 9.679688 27.742188 9.402344 C 27.292969 9.121094 27.042969 8.613281 27.09375 8.089844 Z M 29.257812 8.089844 C 29.257812 7.453125 28.972656 7.082031 28.472656 7.082031 C 27.972656 7.082031 27.6875 7.453125 27.6875 8.089844 C 27.6875 8.726562 27.972656 9.097656 28.472656 9.097656 C 28.972656 9.097656 29.257812 8.726562 29.257812 8.089844 Z M 29.257812 8.089844 "/>
<path style=" stroke:none;fill-rule:nonzero;fill:rgb(100%,100%,100%);fill-opacity:1;" d="M 33.523438 9.554688 L 32.921875 9.554688 L 32.320312 7.398438 L 32.273438 7.398438 L 31.671875 9.554688 L 31.078125 9.554688 L 30.269531 6.625 L 30.855469 6.625 L 31.378906 8.859375 L 31.421875 8.859375 L 32.023438 6.625 L 32.578125 6.625 L 33.179688 8.859375 L 33.226562 8.859375 L 33.75 6.625 L 34.328125 6.625 Z M 33.523438 9.554688 "/>
<path style=" stroke:none;fill-rule:nonzero;fill:rgb(100%,100%,100%);fill-opacity:1;" d="M 35.003906 6.625 L 35.5625 6.625 L 35.5625 7.089844 L 35.605469 7.089844 C 35.753906 6.75 36.105469 6.539062 36.476562 6.570312 C 36.765625 6.546875 37.046875 6.660156 37.246094 6.871094 C 37.441406 7.082031 37.53125 7.371094 37.492188 7.660156 L 37.492188 9.554688 L 36.914062 9.554688 L 36.914062 7.804688 C 36.914062 7.332031 36.707031 7.097656 36.28125 7.097656 C 36.085938 7.089844 35.894531 7.167969 35.761719 7.308594 C 35.628906 7.453125 35.5625 7.644531 35.582031 7.839844 L 35.582031 9.554688 L 35.003906 9.554688 Z M 35.003906 6.625 "/>
<path style=" stroke:none;fill-rule:nonzero;fill:rgb(100%,100%,100%);fill-opacity:1;" d="M 38.410156 5.484375 L 38.988281 5.484375 L 38.988281 9.554688 L 38.410156 9.554688 Z M 38.410156 5.484375 "/>
<path style=" stroke:none;fill-rule:nonzero;fill:rgb(100%,100%,100%);fill-opacity:1;" d="M 39.792969 8.089844 C 39.742188 7.5625 39.992188 7.054688 40.441406 6.777344 C 40.890625 6.5 41.457031 6.5 41.902344 6.777344 C 42.351562 7.054688 42.601562 7.5625 42.550781 8.089844 C 42.605469 8.613281 42.351562 9.121094 41.902344 9.402344 C 41.457031 9.679688 40.886719 9.679688 40.441406 9.402344 C 39.992188 9.121094 39.742188 8.613281 39.792969 8.089844 Z M 41.957031 8.089844 C 41.957031 7.453125 41.671875 7.082031 41.171875 7.082031 C 40.671875 7.082031 40.386719 7.453125 40.386719 8.089844 C 40.386719 8.726562 40.671875 9.097656 41.171875 9.097656 C 41.671875 9.097656 41.957031 8.726562 41.957031 8.089844 Z M 41.957031 8.089844 "/>
<path style=" stroke:none;fill-rule:nonzero;fill:rgb(100%,100%,100%);fill-opacity:1;" d="M 43.160156 8.726562 C 43.160156 8.199219 43.554688 7.894531 44.25 7.851562 L 45.042969 7.804688 L 45.042969 7.554688 C 45.042969 7.246094 44.835938 7.070312 44.441406 7.070312 C 44.121094 7.070312 43.898438 7.1875 43.832031 7.394531 L 43.273438 7.394531 C 43.332031 6.894531 43.804688 6.570312 44.46875 6.570312 C 45.203125 6.570312 45.617188 6.933594 45.617188 7.554688 L 45.617188 9.554688 L 45.0625 9.554688 L 45.0625 9.140625 L 45.015625 9.140625 C 44.828125 9.441406 44.492188 9.617188 44.136719 9.601562 C 43.886719 9.628906 43.640625 9.546875 43.453125 9.378906 C 43.269531 9.214844 43.160156 8.976562 43.160156 8.726562 Z M 45.042969 8.476562 L 45.042969 8.230469 L 44.328125 8.277344 C 43.925781 8.304688 43.742188 8.441406 43.742188 8.699219 C 43.742188 8.960938 43.96875 9.117188 44.285156 9.117188 C 44.46875 9.132812 44.65625 9.078125 44.796875 8.957031 C 44.941406 8.835938 45.03125 8.664062 45.042969 8.476562 Z M 45.042969 8.476562 "/>
<path style=" stroke:none;fill-rule:nonzero;fill:rgb(100%,100%,100%);fill-opacity:1;" d="M 46.375 8.089844 C 46.375 7.164062 46.851562 6.578125 47.589844 6.578125 C 47.964844 6.5625 48.3125 6.761719 48.488281 7.089844 L 48.53125 7.089844 L 48.53125 5.484375 L 49.109375 5.484375 L 49.109375 9.554688 L 48.554688 9.554688 L 48.554688 9.089844 L 48.511719 9.089844 C 48.324219 9.417969 47.96875 9.617188 47.589844 9.601562 C 46.847656 9.601562 46.375 9.015625 46.375 8.089844 Z M 46.972656 8.089844 C 46.972656 8.710938 47.265625 9.082031 47.753906 9.082031 C 48.242188 9.082031 48.542969 8.703125 48.542969 8.089844 C 48.542969 7.480469 48.238281 7.097656 47.753906 7.097656 C 47.269531 7.097656 46.972656 7.472656 46.972656 8.089844 Z M 46.972656 8.089844 "/>
<path style=" stroke:none;fill-rule:nonzero;fill:rgb(100%,100%,100%);fill-opacity:1;" d="M 51.5 8.089844 C 51.449219 7.5625 51.699219 7.054688 52.148438 6.777344 C 52.597656 6.5 53.164062 6.5 53.609375 6.777344 C 54.058594 7.054688 54.308594 7.5625 54.261719 8.089844 C 54.3125 8.613281 54.058594 9.121094 53.613281 9.402344 C 53.164062 9.679688 52.597656 9.679688 52.148438 9.402344 C 51.699219 9.121094 51.449219 8.613281 51.5 8.089844 Z M 53.664062 8.089844 C 53.664062 7.453125 53.382812 7.082031 52.878906 7.082031 C 52.378906 7.082031 52.097656 7.453125 52.097656 8.089844 C 52.097656 8.726562 52.378906 9.097656 52.878906 9.097656 C 53.382812 9.097656 53.664062 8.726562 53.664062 8.089844 Z M 53.664062 8.089844 "/>
<path style=" stroke:none;fill-rule:nonzero;fill:rgb(100%,100%,100%);fill-opacity:1;" d="M 55.035156 6.625 L 55.589844 6.625 L 55.589844 7.089844 L 55.632812 7.089844 C 55.785156 6.75 56.136719 6.539062 56.507812 6.570312 C 56.796875 6.546875 57.078125 6.660156 57.277344 6.871094 C 57.472656 7.082031 57.5625 7.371094 57.519531 7.660156 L 57.519531 9.554688 L 56.941406 9.554688 L 56.941406 7.804688 C 56.941406 7.332031 56.738281 7.097656 56.3125 7.097656 C 56.117188 7.089844 55.925781 7.167969 55.792969 7.308594 C 55.65625 7.453125 55.59375 7.644531 55.613281 7.839844 L 55.613281 9.554688 L 55.035156 9.554688 Z M 55.035156 6.625 "/>
<path style=" stroke:none;fill-rule:nonzero;fill:rgb(100%,100%,100%);fill-opacity:1;" d="M 60.785156 5.898438 L 60.785156 6.640625 L 61.417969 6.640625 L 61.417969 7.125 L 60.785156 7.125 L 60.785156 8.632812 C 60.785156 8.9375 60.910156 9.074219 61.199219 9.074219 C 61.273438 9.070312 61.347656 9.066406 61.417969 9.058594 L 61.417969 9.539062 C 61.316406 9.558594 61.210938 9.570312 61.105469 9.570312 C 60.460938 9.570312 60.207031 9.34375 60.207031 8.78125 L 60.207031 7.125 L 59.742188 7.125 L 59.742188 6.640625 L 60.207031 6.640625 L 60.207031 5.898438 Z M 60.785156 5.898438 "/>
<path style=" stroke:none;fill-rule:nonzero;fill:rgb(100%,100%,100%);fill-opacity:1;" d="M 62.207031 5.484375 L 62.78125 5.484375 L 62.78125 7.097656 L 62.828125 7.097656 C 62.984375 6.75 63.339844 6.542969 63.71875 6.574219 C 64.003906 6.558594 64.285156 6.671875 64.480469 6.882812 C 64.675781 7.09375 64.765625 7.378906 64.726562 7.664062 L 64.726562 9.554688 L 64.148438 9.554688 L 64.148438 7.804688 C 64.148438 7.339844 63.929688 7.101562 63.523438 7.101562 C 63.320312 7.085938 63.125 7.160156 62.980469 7.300781 C 62.839844 7.445312 62.769531 7.644531 62.785156 7.84375 L 62.785156 9.554688 L 62.207031 9.554688 Z M 62.207031 5.484375 "/>
<path style=" stroke:none;fill-rule:nonzero;fill:rgb(100%,100%,100%);fill-opacity:1;" d="M 68.09375 8.761719 C 67.933594 9.316406 67.398438 9.671875 66.828125 9.609375 C 66.4375 9.621094 66.0625 9.457031 65.800781 9.167969 C 65.539062 8.875 65.421875 8.484375 65.472656 8.097656 C 65.421875 7.710938 65.542969 7.320312 65.800781 7.027344 C 66.058594 6.734375 66.433594 6.566406 66.824219 6.570312 C 67.636719 6.570312 68.128906 7.125 68.128906 8.046875 L 68.128906 8.246094 L 66.0625 8.246094 L 66.0625 8.28125 C 66.042969 8.496094 66.117188 8.710938 66.265625 8.871094 C 66.414062 9.03125 66.625 9.121094 66.84375 9.117188 C 67.125 9.152344 67.398438 9.011719 67.539062 8.761719 Z M 66.0625 7.820312 L 67.542969 7.820312 C 67.554688 7.621094 67.484375 7.425781 67.347656 7.28125 C 67.210938 7.136719 67.019531 7.058594 66.820312 7.0625 C 66.617188 7.058594 66.425781 7.136719 66.28125 7.28125 C 66.140625 7.425781 66.058594 7.617188 66.0625 7.820312 Z M 66.0625 7.820312 "/>
</g>
</svg>
